<mxfile host="app.diagrams.net" modified="2021-02-26T21:32:29.102Z" agent="5.0 (Windows NT 6.1; Win64; x64) AppleWebKit/537.36 (KHTML, like Gecko) Chrome/88.0.4324.182 Safari/537.36" etag="NfzdzjMi_bHo2ZD9Kskm" version="14.4.2" type="github" pages="2">
  <diagram id="iRu68B-h0srwzJngsNM3" name="Page-1">
    <mxGraphModel dx="1334" dy="802" grid="1" gridSize="10" guides="1" tooltips="1" connect="1" arrows="1" fold="1" page="1" pageScale="1" pageWidth="1100" pageHeight="850" math="0" shadow="0">
      <root>
        <mxCell id="0" />
        <mxCell id="1" parent="0" />
        <mxCell id="vKYoiZEN1wMwFHQaa8nA-1" value="Load Balancer" style="rounded=1;whiteSpace=wrap;html=1;direction=south;" vertex="1" parent="1">
          <mxGeometry x="260" y="170" width="60" height="470" as="geometry" />
        </mxCell>
        <mxCell id="vKYoiZEN1wMwFHQaa8nA-2" value="Web" style="whiteSpace=wrap;html=1;aspect=fixed;" vertex="1" parent="1">
          <mxGeometry x="90" y="230" width="80" height="80" as="geometry" />
        </mxCell>
        <mxCell id="vKYoiZEN1wMwFHQaa8nA-3" value="Thick Client" style="whiteSpace=wrap;html=1;aspect=fixed;" vertex="1" parent="1">
          <mxGeometry x="90" y="350" width="80" height="80" as="geometry" />
        </mxCell>
        <mxCell id="vKYoiZEN1wMwFHQaa8nA-4" value="Mobile" style="whiteSpace=wrap;html=1;aspect=fixed;" vertex="1" parent="1">
          <mxGeometry x="90" y="480" width="80" height="80" as="geometry" />
        </mxCell>
      </root>
    </mxGraphModel>
  </diagram>
  <diagram id="O9x_CGTGgwwu1fojC1Sd" name="Interactions">
    <mxGraphModel dx="1334" dy="802" grid="1" gridSize="10" guides="1" tooltips="1" connect="1" arrows="1" fold="1" page="1" pageScale="1" pageWidth="1100" pageHeight="850" math="0" shadow="0">
      <root>
        <mxCell id="i6T3xDep09OXiuGcJDzH-0" />
        <mxCell id="i6T3xDep09OXiuGcJDzH-1" parent="i6T3xDep09OXiuGcJDzH-0" />
        <mxCell id="i6T3xDep09OXiuGcJDzH-31" value="" style="edgeStyle=orthogonalEdgeStyle;rounded=0;orthogonalLoop=1;jettySize=auto;html=1;" edge="1" parent="i6T3xDep09OXiuGcJDzH-1" source="i6T3xDep09OXiuGcJDzH-24" target="i6T3xDep09OXiuGcJDzH-29">
          <mxGeometry relative="1" as="geometry" />
        </mxCell>
        <mxCell id="i6T3xDep09OXiuGcJDzH-32" value="" style="edgeStyle=orthogonalEdgeStyle;rounded=0;orthogonalLoop=1;jettySize=auto;html=1;" edge="1" parent="i6T3xDep09OXiuGcJDzH-1" source="i6T3xDep09OXiuGcJDzH-24" target="i6T3xDep09OXiuGcJDzH-27">
          <mxGeometry relative="1" as="geometry" />
        </mxCell>
        <mxCell id="i6T3xDep09OXiuGcJDzH-33" value="" style="edgeStyle=orthogonalEdgeStyle;rounded=0;orthogonalLoop=1;jettySize=auto;html=1;" edge="1" parent="i6T3xDep09OXiuGcJDzH-1" source="i6T3xDep09OXiuGcJDzH-24" target="i6T3xDep09OXiuGcJDzH-26">
          <mxGeometry relative="1" as="geometry" />
        </mxCell>
        <mxCell id="i6T3xDep09OXiuGcJDzH-38" value="" style="edgeStyle=orthogonalEdgeStyle;rounded=0;orthogonalLoop=1;jettySize=auto;html=1;" edge="1" parent="i6T3xDep09OXiuGcJDzH-1" source="i6T3xDep09OXiuGcJDzH-24" target="i6T3xDep09OXiuGcJDzH-35">
          <mxGeometry relative="1" as="geometry" />
        </mxCell>
        <mxCell id="i6T3xDep09OXiuGcJDzH-24" value="AML IT Team" style="ellipse;whiteSpace=wrap;html=1;" vertex="1" parent="i6T3xDep09OXiuGcJDzH-1">
          <mxGeometry x="430" y="400" width="120" height="80" as="geometry" />
        </mxCell>
        <mxCell id="i6T3xDep09OXiuGcJDzH-25" value="AML Product Development" style="ellipse;whiteSpace=wrap;html=1;" vertex="1" parent="i6T3xDep09OXiuGcJDzH-1">
          <mxGeometry x="580" y="300" width="120" height="80" as="geometry" />
        </mxCell>
        <mxCell id="i6T3xDep09OXiuGcJDzH-26" value="MSFS AML BU&amp;nbsp;" style="ellipse;whiteSpace=wrap;html=1;" vertex="1" parent="i6T3xDep09OXiuGcJDzH-1">
          <mxGeometry x="580" y="400" width="120" height="80" as="geometry" />
        </mxCell>
        <mxCell id="i6T3xDep09OXiuGcJDzH-27" value="Morgan Stanley AML BU/ Internal Audit" style="ellipse;whiteSpace=wrap;html=1;" vertex="1" parent="i6T3xDep09OXiuGcJDzH-1">
          <mxGeometry x="420" y="210" width="120" height="80" as="geometry" />
        </mxCell>
        <mxCell id="i6T3xDep09OXiuGcJDzH-28" value="Morgan Stanley IT" style="ellipse;whiteSpace=wrap;html=1;" vertex="1" parent="i6T3xDep09OXiuGcJDzH-1">
          <mxGeometry x="270" y="210" width="120" height="80" as="geometry" />
        </mxCell>
        <mxCell id="i6T3xDep09OXiuGcJDzH-29" value="Morgan Stanley SRE/Prod Management" style="ellipse;whiteSpace=wrap;html=1;" vertex="1" parent="i6T3xDep09OXiuGcJDzH-1">
          <mxGeometry x="240" y="400" width="120" height="80" as="geometry" />
        </mxCell>
        <mxCell id="i6T3xDep09OXiuGcJDzH-30" value="MSFS UAT" style="ellipse;whiteSpace=wrap;html=1;" vertex="1" parent="i6T3xDep09OXiuGcJDzH-1">
          <mxGeometry x="580" y="500" width="120" height="80" as="geometry" />
        </mxCell>
        <mxCell id="i6T3xDep09OXiuGcJDzH-34" value="" style="endArrow=classic;html=1;" edge="1" parent="i6T3xDep09OXiuGcJDzH-1" source="i6T3xDep09OXiuGcJDzH-24" target="i6T3xDep09OXiuGcJDzH-25">
          <mxGeometry width="50" height="50" relative="1" as="geometry">
            <mxPoint x="520" y="390" as="sourcePoint" />
            <mxPoint x="570" y="340" as="targetPoint" />
          </mxGeometry>
        </mxCell>
        <mxCell id="i6T3xDep09OXiuGcJDzH-35" value="Hedge Funds" style="ellipse;whiteSpace=wrap;html=1;" vertex="1" parent="i6T3xDep09OXiuGcJDzH-1">
          <mxGeometry x="440" y="550" width="120" height="80" as="geometry" />
        </mxCell>
        <mxCell id="i6T3xDep09OXiuGcJDzH-36" value="Regulators/&lt;br&gt;Auditors" style="ellipse;whiteSpace=wrap;html=1;" vertex="1" parent="i6T3xDep09OXiuGcJDzH-1">
          <mxGeometry x="270" y="560" width="120" height="80" as="geometry" />
        </mxCell>
        <mxCell id="i6T3xDep09OXiuGcJDzH-37" value="" style="endArrow=classic;html=1;exitX=0.208;exitY=0.913;exitDx=0;exitDy=0;exitPerimeter=0;" edge="1" parent="i6T3xDep09OXiuGcJDzH-1" source="i6T3xDep09OXiuGcJDzH-24" target="i6T3xDep09OXiuGcJDzH-36">
          <mxGeometry width="50" height="50" relative="1" as="geometry">
            <mxPoint x="520" y="380" as="sourcePoint" />
            <mxPoint x="570" y="330" as="targetPoint" />
          </mxGeometry>
        </mxCell>
        <mxCell id="i6T3xDep09OXiuGcJDzH-39" value="" style="endArrow=classic;html=1;exitX=1;exitY=1;exitDx=0;exitDy=0;" edge="1" parent="i6T3xDep09OXiuGcJDzH-1" source="i6T3xDep09OXiuGcJDzH-24" target="i6T3xDep09OXiuGcJDzH-30">
          <mxGeometry width="50" height="50" relative="1" as="geometry">
            <mxPoint x="520" y="380" as="sourcePoint" />
            <mxPoint x="570" y="330" as="targetPoint" />
          </mxGeometry>
        </mxCell>
        <mxCell id="i6T3xDep09OXiuGcJDzH-40" value="" style="endArrow=classic;html=1;entryX=0.625;entryY=0.988;entryDx=0;entryDy=0;entryPerimeter=0;exitX=0.217;exitY=0.113;exitDx=0;exitDy=0;exitPerimeter=0;" edge="1" parent="i6T3xDep09OXiuGcJDzH-1" source="i6T3xDep09OXiuGcJDzH-24" target="i6T3xDep09OXiuGcJDzH-28">
          <mxGeometry width="50" height="50" relative="1" as="geometry">
            <mxPoint x="520" y="380" as="sourcePoint" />
            <mxPoint x="570" y="330" as="targetPoint" />
          </mxGeometry>
        </mxCell>
      </root>
    </mxGraphModel>
  </diagram>
</mxfile>
